<svg id="icon" xmlns="http://www.w3.org/2000/svg" viewBox="-378 -56.7 214 214"><style>.st0{fill:#3f51b5}.st1{display:none}.st2{fill:#f44336}.st3{fill:green}.st4{fill:#ff4081}.st5{fill:#333}</style><path class="st0" d="M-228.3-56.3V-35h-85.3v-21.3H-335V-35h-10.7c-11.8 0-21.2 9.6-21.2 21.3l-.1 149.3c0 11.7 9.5 21.3 21.3 21.3h149.3c11.7 0 21.3-9.6 21.3-21.3V-13.7c0-11.7-9.6-21.3-21.3-21.3H-207v-21.3h-21.3zm32 192h-149.3V18.3h149.3v117.4z"/><path id="touchicon_1_" class="st1" d="M-271 65.8c10.4 0 18.6-8.4 18.6-18.7s-8.3-18.7-18.6-18.7-18.7 8.4-18.7 18.7 8.3 18.7 18.7 18.7zm0 12.4c-14.5 0-43.6 7.3-43.6 21.8v15.6h87.3V100c-.1-14.5-29.2-21.8-43.7-21.8z"/><path id="touchicon_5_" class="st2" d="M-246.8 127.9c14.4 0 25.8-11.6 25.8-25.9s-11.5-25.9-25.8-25.9c-14.4 0-25.9 11.6-25.9 25.9s11.5 25.9 25.9 25.9z"/><path id="touchicon_3_" class="st0" d="M-269.7 127.9c14.4 0 25.8-11.6 25.8-25.9s-11.5-25.9-25.8-25.9c-14.4 0-25.9 11.6-25.9 25.9s11.6 25.9 25.9 25.9z"/><path id="touchicon_4_" class="st3" d="M-294.7 127.9c14.4 0 25.8-11.6 25.8-25.9s-11.5-25.9-25.8-25.9c-14.4 0-25.9 11.6-25.9 25.9s11.5 25.9 25.9 25.9z"/><path id="touchicon_2_" class="st4" d="M-269.7 78.7c14.4 0 25.8-11.6 25.8-25.9s-11.5-25.9-25.8-25.9c-14.4 0-25.9 11.6-25.9 25.9s11.6 25.9 25.9 25.9z"/><path class="st5" d="M-227.4-56.3h20.4v49.8h-20.4zm-107.6 0h20.4v49.8H-335z"/></svg>