<?xml version="1.0" encoding="utf-8"?>
<!-- Generator: Adobe Illustrator 19.0.0, SVG Export Plug-In . SVG Version: 6.00 Build 0)  -->
<!DOCTYPE svg PUBLIC "-//W3C//DTD SVG 1.1//EN" "http://www.w3.org/Graphics/SVG/1.1/DTD/svg11.dtd">
<svg version="1.1" id="Layer_1" xmlns="http://www.w3.org/2000/svg" xmlns:xlink="http://www.w3.org/1999/xlink" x="0px" y="0px"
	 viewBox="-399 -67 256 256" style="enable-background:new -399 -67 256 256;" xml:space="preserve">
<style type="text/css">
	.st0{display:none;}
</style>
<path d="M-228.3-56.3V-35h-85.3v-21.3H-335V-35h-10.7c-11.8,0-21.2,9.6-21.2,21.3l-0.1,149.3c0,11.7,9.5,21.3,21.3,21.3h149.3
	c11.7,0,21.3-9.6,21.3-21.3V-13.7c0-11.7-9.6-21.3-21.3-21.3H-207v-21.3H-228.3z M-196.3,135.7h-149.3V18.3h149.3V135.7z"/>
<path id="logo" d="M-246.1,75.8c10.4,0,18.6-8.4,18.6-18.7s-8.3-18.7-18.6-18.7s-18.7,8.4-18.7,18.7S-256.4,75.8-246.1,75.8z
	 M-295.9,75.8c10.4,0,18.6-8.4,18.6-18.7s-8.3-18.7-18.6-18.7c-10.4,0-18.7,8.4-18.7,18.7S-306.3,75.8-295.9,75.8z M-295.9,88.2
	c-14.5,0-43.6,7.3-43.6,21.8v15.6h87.3v-15.6C-252.3,95.5-281.4,88.2-295.9,88.2z M-246.1,88.2c-1.8,0-3.9,0.1-6,0.3
	c7.2,5.2,12.3,12.3,12.3,21.5v15.6h37.4v-15.6C-202.4,95.5-231.5,88.2-246.1,88.2z"/>
<path id="touchicon" class="st0" d="M-271,75.8c10.4,0,18.6-8.4,18.6-18.7s-8.3-18.7-18.6-18.7s-18.7,8.4-18.7,18.7
	S-281.4,75.8-271,75.8z M-271,88.2c-14.5,0-43.6,7.3-43.6,21.8v15.6h87.3v-15.6C-227.4,95.5-256.5,88.2-271,88.2z"/>
</svg>
